<?xml version="1.0" encoding="UTF-8"?>
<svg xmlns="http://www.w3.org/2000/svg" xmlns:xlink="http://www.w3.org/1999/xlink" width="192px" height="192px" viewBox="0 0 192 192" version="1.1">
<g id="surface1">
<path style=" stroke:none;fill-rule:nonzero;fill:rgb(0%,65.098041%,92.941177%);fill-opacity:1;" d="M 102.269531 163.714844 L 180 163.714844 L 180 78 C 180 71.375 174.625 66 168 66 L 102.269531 66 Z M 102.269531 163.714844 "/>
<path style=" stroke:none;fill-rule:nonzero;fill:rgb(82.745099%,82.745099%,82.745099%);fill-opacity:1;" d="M 94.089844 167.785156 L 180 167.785156 L 180 175.925781 L 94.089844 175.925781 Z M 94.089844 167.785156 "/>
<path style=" stroke:none;fill-rule:nonzero;fill:rgb(0%,45.490196%,72.941178%);fill-opacity:1;" d="M 96.136719 66 C 92.753906 65.988281 90.007812 68.726562 90 72.109375 L 90 171.859375 L 94.089844 171.859375 C 94.09375 170.773438 94.527344 169.738281 95.292969 168.972656 C 96.0625 168.207031 97.101562 167.78125 98.183594 167.785156 L 102.269531 167.785156 L 102.269531 66 Z M 96.136719 66 "/>
<path style=" stroke:none;fill-rule:nonzero;fill:rgb(0%,45.490196%,72.941178%);fill-opacity:1;" d="M 96.136719 163.714844 C 92.753906 163.707031 90.007812 166.441406 90 169.824219 L 90 173.890625 C 90.007812 177.273438 92.753906 180.011719 96.136719 180 L 173.863281 180 C 176.539062 180 178.804688 178.300781 179.652344 175.933594 L 98.183594 175.933594 C 97.101562 175.933594 96.058594 175.507812 95.289062 174.742188 C 94.523438 173.976562 94.089844 172.9375 94.089844 171.851562 C 94.097656 169.597656 95.929688 167.777344 98.183594 167.785156 L 180 167.785156 L 180 163.714844 Z M 96.136719 163.714844 "/>
<path style=" stroke:none;fill-rule:nonzero;fill:rgb(79.215688%,4.313726%,29.019609%);fill-opacity:1;" d="M 60.269531 139.714844 L 138 139.714844 L 138 54 C 138 47.375 132.625 42 126 42 L 60.269531 42 Z M 60.269531 139.714844 "/>
<path style=" stroke:none;fill-rule:nonzero;fill:rgb(82.745099%,82.745099%,82.745099%);fill-opacity:1;" d="M 52.089844 143.785156 L 138 143.785156 L 138 151.925781 L 52.089844 151.925781 Z M 52.089844 143.785156 "/>
<path style=" stroke:none;fill-rule:nonzero;fill:rgb(60.000002%,3.137255%,21.960784%);fill-opacity:1;" d="M 54.136719 42 C 50.753906 41.988281 48.007812 44.726562 48 48.109375 L 48 147.859375 L 52.089844 147.859375 C 52.09375 146.773438 52.527344 145.738281 53.292969 144.972656 C 54.0625 144.207031 55.101562 143.78125 56.183594 143.785156 L 60.269531 143.785156 L 60.269531 42 Z M 54.136719 42 "/>
<path style=" stroke:none;fill-rule:nonzero;fill:rgb(60.000002%,3.137255%,21.960784%);fill-opacity:1;" d="M 54.136719 139.714844 C 50.753906 139.707031 48.007812 142.441406 48 145.824219 L 48 149.890625 C 48.007812 153.273438 50.753906 156.011719 54.136719 156 L 131.863281 156 C 134.539062 156 136.804688 154.300781 137.652344 151.933594 L 56.183594 151.933594 C 55.101562 151.933594 54.058594 151.507812 53.289062 150.742188 C 52.523438 149.976562 52.089844 148.9375 52.089844 147.851562 C 52.097656 145.597656 53.929688 143.777344 56.183594 143.785156 L 138 143.785156 L 138 139.714844 Z M 54.136719 139.714844 "/>
<path style=" stroke:none;fill-rule:nonzero;fill:rgb(52.549022%,84.313726%,18.431373%);fill-opacity:1;" d="M 24.269531 121.714844 L 102 121.714844 L 102 36 C 102 29.375 96.625 24 90 24 L 24.269531 24 Z M 24.269531 121.714844 "/>
<path style=" stroke:none;fill-rule:nonzero;fill:rgb(82.745099%,82.745099%,82.745099%);fill-opacity:1;" d="M 16.089844 125.785156 L 102 125.785156 L 102 133.925781 L 16.089844 133.925781 Z M 16.089844 125.785156 "/>
<path style=" stroke:none;fill-rule:nonzero;fill:rgb(26.666668%,56.862748%,10.588235%);fill-opacity:1;" d="M 18.136719 24 C 14.753906 23.988281 12.007812 26.726562 12 30.109375 L 12 129.859375 L 16.089844 129.859375 C 16.09375 128.773438 16.527344 127.738281 17.292969 126.972656 C 18.0625 126.207031 19.101562 125.78125 20.183594 125.785156 L 24.269531 125.785156 L 24.269531 24 Z M 18.136719 24 "/>
<path style=" stroke:none;fill-rule:nonzero;fill:rgb(0%,51.764709%,38.82353%);fill-opacity:1;" d="M 18.136719 121.714844 C 14.753906 121.707031 12.007812 124.441406 12 127.824219 L 12 131.890625 C 12.007812 135.273438 14.753906 138.011719 18.136719 138 L 95.863281 138 C 98.539062 138 100.804688 136.300781 101.652344 133.933594 L 20.183594 133.933594 C 19.101562 133.933594 18.058594 133.507812 17.292969 132.742188 C 16.523438 131.976562 16.089844 130.9375 16.089844 129.851562 C 16.097656 127.597656 17.929688 125.777344 20.183594 125.785156 L 102 125.785156 L 102 121.714844 Z M 18.136719 121.714844 "/>
</g>
</svg>
