<?xml version="1.0" encoding="UTF-8"?>
<svg xmlns="http://www.w3.org/2000/svg" xmlns:xlink="http://www.w3.org/1999/xlink" width="512px" height="512px" viewBox="0 0 512 512" version="1.1">
<g id="surface1">
<path style=" stroke:none;fill-rule:nonzero;fill:rgb(0%,65.098041%,92.941177%);fill-opacity:1;" d="M 272.71875 436.574219 L 480 436.574219 L 480 208 C 480 190.328125 465.671875 176 448 176 L 272.71875 176 Z M 272.71875 436.574219 "/>
<path style=" stroke:none;fill-rule:nonzero;fill:rgb(82.745099%,82.745099%,82.745099%);fill-opacity:1;" d="M 250.910156 447.425781 L 480 447.425781 L 480 469.136719 L 250.910156 469.136719 Z M 250.910156 447.425781 "/>
<path style=" stroke:none;fill-rule:nonzero;fill:rgb(0%,45.490196%,72.941178%);fill-opacity:1;" d="M 256.367188 176 C 247.347656 175.972656 240.019531 183.269531 240 192.289062 L 240 458.289062 L 250.910156 458.289062 C 250.917969 455.398438 252.070312 452.632812 254.117188 450.59375 C 256.164062 448.554688 258.9375 447.414062 261.824219 447.425781 L 272.71875 447.425781 L 272.71875 176 Z M 256.367188 176 "/>
<path style=" stroke:none;fill-rule:nonzero;fill:rgb(0%,45.490196%,72.941178%);fill-opacity:1;" d="M 256.367188 436.574219 C 247.347656 436.550781 240.019531 443.84375 240 452.863281 L 240 463.710938 C 240.019531 472.730469 247.347656 480.027344 256.367188 480 L 463.632812 480 C 470.769531 480 476.816406 475.472656 479.070312 469.152344 L 261.824219 469.152344 C 258.933594 469.160156 256.15625 468.019531 254.109375 465.976562 C 252.0625 463.933594 250.910156 461.164062 250.910156 458.273438 C 250.929688 452.261719 255.816406 447.40625 261.824219 447.425781 L 480 447.425781 L 480 436.574219 Z M 256.367188 436.574219 "/>
<path style=" stroke:none;fill-rule:nonzero;fill:rgb(79.215688%,4.313726%,29.019609%);fill-opacity:1;" d="M 160.71875 372.574219 L 368 372.574219 L 368 144 C 368 126.328125 353.671875 112 336 112 L 160.71875 112 Z M 160.71875 372.574219 "/>
<path style=" stroke:none;fill-rule:nonzero;fill:rgb(82.745099%,82.745099%,82.745099%);fill-opacity:1;" d="M 138.910156 383.425781 L 368 383.425781 L 368 405.136719 L 138.910156 405.136719 Z M 138.910156 383.425781 "/>
<path style=" stroke:none;fill-rule:nonzero;fill:rgb(60.000002%,3.137255%,21.960784%);fill-opacity:1;" d="M 144.367188 112 C 135.347656 111.972656 128.019531 119.269531 128 128.289062 L 128 394.289062 L 138.910156 394.289062 C 138.917969 391.398438 140.070312 388.632812 142.117188 386.59375 C 144.164062 384.554688 146.9375 383.414062 149.824219 383.425781 L 160.71875 383.425781 L 160.71875 112 Z M 144.367188 112 "/>
<path style=" stroke:none;fill-rule:nonzero;fill:rgb(60.000002%,3.137255%,21.960784%);fill-opacity:1;" d="M 144.367188 372.574219 C 135.347656 372.550781 128.019531 379.84375 128 388.863281 L 128 399.710938 C 128.019531 408.730469 135.347656 416.027344 144.367188 416 L 351.632812 416 C 358.769531 416 364.816406 411.472656 367.070312 405.152344 L 149.824219 405.152344 C 146.933594 405.160156 144.15625 404.019531 142.109375 401.976562 C 140.0625 399.933594 138.910156 397.164062 138.910156 394.273438 C 138.929688 388.261719 143.816406 383.40625 149.824219 383.425781 L 368 383.425781 L 368 372.574219 Z M 144.367188 372.574219 "/>
<path style=" stroke:none;fill-rule:nonzero;fill:rgb(52.549022%,84.313726%,18.431373%);fill-opacity:1;" d="M 64.71875 324.574219 L 272 324.574219 L 272 96 C 272 78.328125 257.671875 64 240 64 L 64.71875 64 Z M 64.71875 324.574219 "/>
<path style=" stroke:none;fill-rule:nonzero;fill:rgb(82.745099%,82.745099%,82.745099%);fill-opacity:1;" d="M 42.910156 335.425781 L 272 335.425781 L 272 357.136719 L 42.910156 357.136719 Z M 42.910156 335.425781 "/>
<path style=" stroke:none;fill-rule:nonzero;fill:rgb(26.666668%,56.862748%,10.588235%);fill-opacity:1;" d="M 48.367188 64 C 39.347656 63.972656 32.019531 71.269531 32 80.289062 L 32 346.289062 L 42.910156 346.289062 C 42.917969 343.398438 44.070312 340.632812 46.117188 338.59375 C 48.164062 336.554688 50.9375 335.414062 53.824219 335.425781 L 64.71875 335.425781 L 64.71875 64 Z M 48.367188 64 "/>
<path style=" stroke:none;fill-rule:nonzero;fill:rgb(0%,51.764709%,38.82353%);fill-opacity:1;" d="M 48.367188 324.574219 C 39.347656 324.550781 32.019531 331.84375 32 340.863281 L 32 351.710938 C 32.019531 360.730469 39.347656 368.027344 48.367188 368 L 255.632812 368 C 262.769531 368 268.816406 363.472656 271.070312 357.152344 L 53.824219 357.152344 C 50.933594 357.160156 48.15625 356.019531 46.109375 353.976562 C 44.0625 351.933594 42.910156 349.164062 42.910156 346.273438 C 42.929688 340.261719 47.816406 335.40625 53.824219 335.425781 L 272 335.425781 L 272 324.574219 Z M 48.367188 324.574219 "/>
</g>
</svg>
